<svg width="25" height="25" viewBox="0 0 25 25" fill="none" xmlns="http://www.w3.org/2000/svg">
<g clip-path="url(#clip0_46_21)">
<path d="M25 8.49374V17.8687C25 21.0271 22.4302 23.5979 19.2708 23.5979H18.2292C16.175 23.5625 16.176 20.5073 18.2292 20.4729H19.2708C20.7062 20.4729 21.875 19.3052 21.875 17.8687V8.49374C21.875 8.31562 21.8562 8.14062 21.8219 7.97291H3.125V17.8687C3.125 19.3052 4.29375 20.4729 5.72917 20.4729H6.77083C8.825 20.5083 8.82396 23.5635 6.77083 23.5979H5.72917C2.57083 23.5979 0 21.0271 0 17.8687V6.41041C0 3.25208 2.57083 0.681244 5.72917 0.681244H8.3625C8.92604 0.681244 9.48958 0.814577 9.99271 1.06562L13.2792 2.70833C13.3531 2.74583 13.4323 2.76458 13.5125 2.76458H19.2708C22.4302 2.76458 25 5.33541 25 8.49374ZM16.5323 14.5271L13.2375 11.2323C12.8302 10.825 12.1708 10.825 11.7646 11.2323L8.46979 14.5271C7.81354 15.1833 8.27812 16.3052 9.20625 16.3052H10.9385V22.0354C10.974 24.0896 14.0292 24.0885 14.0635 22.0354V16.3052H15.7969C16.725 16.3052 17.1885 15.1833 16.5323 14.5271Z" fill="#188CA5"/>
</g>
<defs>
<clipPath id="clip0_46_21">
<rect width="25" height="25" rx="10" fill="white"/>
</clipPath>
</defs>
</svg>
