<svg width="25" height="25" viewBox="0 0 25 25" fill="none" xmlns="http://www.w3.org/2000/svg">
<g clip-path="url(#clip0_60_6)">
<path d="M24.5427 22.3388L19.704 17.498C23.3245 12.6597 22.3373 5.80244 17.499 2.18189C12.6607 -1.43865 5.80341 -0.451446 2.18287 4.38686C-1.43767 9.22517 -0.450469 16.0825 4.38784 19.703C8.27437 22.6113 13.6124 22.6113 17.499 19.703L22.3397 24.5437C22.9481 25.1521 23.9344 25.1521 24.5426 24.5437C25.1509 23.9354 25.1509 22.9491 24.5426 22.3409L24.5427 22.3388ZM10.9838 18.7687C6.68371 18.7687 3.19786 15.2828 3.19786 10.9828C3.19786 6.68273 6.68371 3.19688 10.9838 3.19688C15.2838 3.19688 18.7697 6.68273 18.7697 10.9828C18.7651 15.2809 15.2819 18.7641 10.9838 18.7687Z" fill="#188CA5"/>
</g>
<defs>
<clipPath id="clip0_60_6">
<rect width="25" height="25" rx="10" fill="white"/>
</clipPath>
</defs>
</svg>
