<svg width="38" height="38" viewBox="0 0 38 38" fill="none" xmlns="http://www.w3.org/2000/svg">
<path d="M28.5 19C28.5 21.5196 27.4991 23.9359 25.7175 25.7175C23.9359 27.4991 21.5196 28.5 19 28.5C16.4804 28.5 14.0641 27.4991 12.2825 25.7175C10.5009 23.9359 9.5 21.5196 9.5 19C9.5 16.4804 10.5009 14.0641 12.2825 12.2825C14.0641 10.5009 16.4804 9.5 19 9.5C21.5196 9.5 23.9359 10.5009 25.7175 12.2825C27.4991 14.0641 28.5 16.4804 28.5 19ZM19 0C19.3149 0 19.617 0.125111 19.8397 0.347811C20.0624 0.57051 20.1875 0.872555 20.1875 1.1875V5.9375C20.1875 6.25244 20.0624 6.55449 19.8397 6.77719C19.617 6.99989 19.3149 7.125 19 7.125C18.6851 7.125 18.383 6.99989 18.1603 6.77719C17.9376 6.55449 17.8125 6.25244 17.8125 5.9375V1.1875C17.8125 0.872555 17.9376 0.57051 18.1603 0.347811C18.383 0.125111 18.6851 0 19 0ZM19 30.875C19.3149 30.875 19.617 31.0001 19.8397 31.2228C20.0624 31.4455 20.1875 31.7476 20.1875 32.0625V36.8125C20.1875 37.1274 20.0624 37.4295 19.8397 37.6522C19.617 37.8749 19.3149 38 19 38C18.6851 38 18.383 37.8749 18.1603 37.6522C17.9376 37.4295 17.8125 37.1274 17.8125 36.8125V32.0625C17.8125 31.7476 17.9376 31.4455 18.1603 31.2228C18.383 31.0001 18.6851 30.875 19 30.875ZM38 19C38 19.3149 37.8749 19.617 37.6522 19.8397C37.4295 20.0624 37.1274 20.1875 36.8125 20.1875H32.0625C31.7476 20.1875 31.4455 20.0624 31.2228 19.8397C31.0001 19.617 30.875 19.3149 30.875 19C30.875 18.6851 31.0001 18.383 31.2228 18.1603C31.4455 17.9376 31.7476 17.8125 32.0625 17.8125H36.8125C37.1274 17.8125 37.4295 17.9376 37.6522 18.1603C37.8749 18.383 38 18.6851 38 19ZM7.125 19C7.125 19.3149 6.99989 19.617 6.77719 19.8397C6.55449 20.0624 6.25244 20.1875 5.9375 20.1875H1.1875C0.872555 20.1875 0.57051 20.0624 0.347811 19.8397C0.125111 19.617 0 19.3149 0 19C0 18.6851 0.125111 18.383 0.347811 18.1603C0.57051 17.9376 0.872555 17.8125 1.1875 17.8125H5.9375C6.25244 17.8125 6.55449 17.9376 6.77719 18.1603C6.99989 18.383 7.125 18.6851 7.125 19ZM32.4354 5.56462C32.658 5.78731 32.7831 6.08931 32.7831 6.40419C32.7831 6.71907 32.658 7.02106 32.4354 7.24375L29.0771 10.6044C28.9667 10.7146 28.8357 10.8021 28.6915 10.8617C28.5473 10.9213 28.3928 10.9519 28.2367 10.9518C27.9216 10.9516 27.6195 10.8262 27.3968 10.6032C27.2866 10.4928 27.1991 10.3617 27.1395 10.2175C27.0799 10.0733 27.0493 9.91882 27.0494 9.76278C27.0496 9.44767 27.175 9.14554 27.398 8.92287L30.7563 5.56462C30.9789 5.342 31.2809 5.21694 31.5958 5.21694C31.9107 5.21694 32.2127 5.342 32.4354 5.56462ZM10.602 27.398C10.8246 27.6207 10.9497 27.9227 10.9497 28.2376C10.9497 28.5524 10.8246 28.8544 10.602 29.0771L7.24375 32.4354C7.01978 32.6517 6.71982 32.7714 6.40846 32.7687C6.0971 32.766 5.79926 32.6411 5.57909 32.4209C5.35892 32.2007 5.23403 31.9029 5.23132 31.5915C5.22862 31.2802 5.34831 30.9802 5.56462 30.7563L8.92287 27.398C9.14556 27.1754 9.44755 27.0503 9.76244 27.0503C10.0773 27.0503 10.3793 27.1754 10.602 27.398ZM32.4354 32.4354C32.2127 32.658 31.9107 32.7831 31.5958 32.7831C31.2809 32.7831 30.9789 32.658 30.7563 32.4354L27.398 29.0771C27.1817 28.8532 27.062 28.5532 27.0647 28.2418C27.0674 27.9305 27.1923 27.6326 27.4125 27.4125C27.6326 27.1923 27.9305 27.0674 28.2418 27.0647C28.5532 27.062 28.8532 27.1817 29.0771 27.398L32.4354 30.7563C32.658 30.9789 32.7831 31.2809 32.7831 31.5958C32.7831 31.9107 32.658 32.2127 32.4354 32.4354ZM10.602 10.6044C10.3793 10.827 10.0773 10.9521 9.76244 10.9521C9.44755 10.9521 9.14556 10.827 8.92287 10.6044L5.56462 7.24375C5.45121 7.13421 5.36074 7.00317 5.2985 6.85829C5.23627 6.71341 5.20351 6.55759 5.20214 6.39991C5.20077 6.24224 5.23082 6.08587 5.29052 5.93993C5.35023 5.79399 5.43841 5.6614 5.54991 5.54991C5.6614 5.43841 5.79399 5.35023 5.93993 5.29052C6.08587 5.23082 6.24224 5.20077 6.39991 5.20214C6.55759 5.20351 6.71341 5.23627 6.85829 5.2985C7.00317 5.36074 7.13421 5.45121 7.24375 5.56462L10.602 8.92287C10.7126 9.03318 10.8003 9.16423 10.8602 9.3085C10.9201 9.45276 10.9509 9.60743 10.9509 9.76363C10.9509 9.91982 10.9201 10.0745 10.8602 10.2188C10.8003 10.363 10.7126 10.4941 10.602 10.6044Z" fill="#24292F"/>
</svg>
